<svg width="100" height="100" viewBox="0 0 100 100" xmlns="http://www.w3.org/2000/svg">
  <defs>
    <linearGradient id="bg" x1="0" y1="0" x2="1" y2="1">
      <stop offset="0%" stop-color="#2b8bfd"/>
      <stop offset="100%" stop-color="#4338ca"/>
    </linearGradient>
  </defs>

  <rect x="2" y="2" width="96" height="96" rx="22" fill="url(#bg)"/>

  <!-- 쇼핑백 손잡이 -->
  <path d="M 38 40 C 38 28, 62 28, 62 40" fill="none" stroke="#ffffff" stroke-width="5" stroke-linecap="round"/>

  <!-- 쇼핑백 몸체 -->
  <path d="M 30 40 L 70 40 L 65 76 Q 64 80 60 80 L 40 80 Q 36 80 35 76 Z" fill="#ffffff"/>

  <!-- AI 스파크 -->
  <path d="M 74 15 C 75.5 22 78 24.5 85 26 C 78 27.5 75.5 30 74 37 C 72.5 30 70 27.5 63 26 C 70 24.5 72.5 22 74 15 Z" fill="#ffd166"/>
</svg>
